<svg xmlns="http://www.w3.org/2000/svg" fill="none" viewBox="0 0 850 359" height="359" width="850">
<g clip-path="url(#clip0_2367_16218)">
<mask height="359" width="850" y="0" x="0" maskUnits="userSpaceOnUse" style="mask-type:luminance" id="mask0_2367_16218">
<path fill="white" d="M850 0H0V359H850V0Z"></path>
</mask>
<g mask="url(#mask0_2367_16218)">
<path fill="#C41320" d="M674.366 225.507C623.235 225.507 613.918 195.623 613.918 188.215H650.947C650.947 192.566 656.778 197.777 661.692 199.899C665.774 201.479 670.143 202.191 674.519 201.987H674.453C684.882 201.987 693.437 199.431 693.437 193.306C693.437 185.842 684.675 184.19 675.02 182.797C648.724 178.957 611.88 174.497 611.88 144.743C611.88 116.991 641.837 102.87 673.636 102.87C724.549 102.87 738.04 131.406 738.04 139.663H700.411C700.188 137.567 699.438 135.563 698.229 133.836C697.021 132.109 695.395 130.715 693.502 129.785L693.426 129.752C688.849 127.4 683.784 126.152 678.638 126.108H678.616C664.558 126.108 656.647 129.067 656.647 135.583C656.647 140.903 663.774 143.546 674.017 145.32C700.749 149.965 741.788 151.575 741.788 184.472C741.788 201.181 727.48 225.485 674.377 225.485L674.366 225.507ZM611.553 120.255L597.136 136.116H591.142L597.746 118.819H584.538V95.7554H611.553V120.255ZM527.752 105.644H575.603V222.189H527.752V105.644ZM465.353 222.418H423.54L361.108 105.862H417.448L453.279 176.705L454.26 178.837L455.153 176.705L488.652 105.862H522.478L465.353 222.418ZM375.526 173.996H278.691C278.811 177.707 279.683 181.356 281.253 184.723C282.823 188.089 285.061 191.102 287.829 193.582C290.598 196.063 293.841 197.958 297.362 199.153C300.884 200.349 304.612 200.821 308.321 200.54L308.223 200.551C313.182 200.8 318.124 199.798 322.595 197.639C327.065 195.479 330.918 192.23 333.799 188.193L333.865 188.106H372.474C359.855 217.446 335.369 225.779 302.001 225.779C258.596 225.779 227.909 202.008 227.909 164.347C227.909 124.128 258.138 102.903 302.001 102.903C351.072 102.903 375.678 135.072 375.678 166.033C375.803 168.763 375.742 171.501 375.493 174.225L375.526 173.996ZM227.092 222.233H116.733V105.96H166.349V190.597H227.092V222.233ZM792.418 10.8791C792.767 11.608 793.159 12.3151 793.486 13.0657C796.406 19.6692 798.106 27.3822 798.106 35.4869V35.9765V35.9547V36.5422C798.106 44.7448 796.406 52.5449 793.344 59.6161L793.486 59.2353C790.535 66.1324 786.304 72.4107 781.019 77.7401C775.883 82.8918 769.791 86.9936 763.082 89.8156L762.711 89.957C755.756 92.8578 748.29 94.341 740.753 94.3194H740.372H740.394H740.078C732.122 94.3194 724.538 92.7202 717.64 89.8156L718.021 89.957C711.124 87.127 704.849 82.9766 699.55 77.7401C694.32 72.5278 690.12 66.3794 687.17 59.6161L687.029 59.2353C683.949 52.0658 682.373 44.3428 682.397 36.5422V35.9221V35.9547V35.4869C682.397 27.3822 684.097 19.68 687.17 12.7067L687.029 13.0657C687.356 12.3151 687.748 11.608 688.108 10.8791H5.24121L85.9803 359C255.49 248.732 418.396 354.704 424.956 358.74H424.978L425.022 358.707H425.109L425.153 358.729L425.185 358.74C431.724 354.693 594.651 248.732 764.15 359L844.878 10.8791H792.418ZM301.074 127.272H300.889C294.97 127.272 289.293 129.618 285.107 133.797C280.922 137.975 278.571 143.642 278.571 149.552L278.593 150.639V150.585H325.463C325.668 147.369 325.164 144.149 323.988 141.149C322.811 138.149 320.992 135.443 318.656 133.22C316.32 130.999 313.524 129.314 310.466 128.287C307.408 127.259 304.161 126.912 300.954 127.272L301.053 127.261L301.074 127.272ZM706.481 71.5936C710.796 76.121 715.99 79.725 721.745 82.1861C727.5 84.6472 733.696 85.9142 739.958 85.9101H740.415H740.394H740.797C747.39 85.9101 753.656 84.5067 759.312 81.9829L759.028 82.1025C764.668 79.6236 769.762 76.06 774.023 71.6154L774.045 71.5936C778.24 67.166 781.619 61.9224 783.929 56.1349L784.049 55.8085C786.337 50.0754 787.667 43.4176 787.667 36.466V35.933V35.9547V35.5631C787.674 28.9139 786.401 22.3251 783.918 16.1553L784.038 16.5034C783.219 14.4872 782.272 12.525 781.204 10.6289L781.335 10.8791H764.967C766.569 13.7729 767.506 17.2323 767.506 20.9093L767.495 21.6709V21.6382C767.715 24.1164 767.372 26.6121 766.493 28.94C765.615 31.2678 764.221 33.368 762.417 35.0844L762.406 35.0953C758.974 37.9238 754.626 39.7732 749.874 40.1539H749.798L769.032 70.1903H757.797L739.5 40.9372H728.417V70.1903H717.967V10.8791H699.19C698.319 12.4021 697.414 14.2515 696.619 16.1553L696.488 16.4926C694.076 22.5501 692.848 29.0122 692.87 35.5304V35.9547V35.933V36.4551C692.87 43.4067 694.199 50.0536 696.619 56.1457L696.488 55.7867C698.907 61.9115 702.285 67.1551 706.503 71.6045L706.481 71.5936ZM746.028 32.1363C748.087 32.0166 749.994 31.5488 751.749 30.7764L751.64 30.8199C753.237 30.1247 754.594 28.9743 755.541 27.5128L755.563 27.4801C756.5 25.8483 757.045 23.901 757.045 21.8232L757.023 21.1487V21.1813L757.034 20.7135C757.034 18.9467 756.572 17.2106 755.694 15.6767L755.715 15.731C754.883 14.4323 753.731 13.3686 752.37 12.6415L752.326 12.6197C750.857 11.8645 749.267 11.3713 747.629 11.162L747.553 11.1511C746.789 11.0378 746.022 10.9508 745.254 10.89H728.406V32.3756H739.326C741.686 32.3756 743.917 32.2994 746.017 32.1471L746.028 32.1363Z"></path>
</g>
</g>
<defs>
<clipPath id="clip0_2367_16218">
<rect fill="white" height="359" width="850"></rect>
</clipPath>
</defs>
</svg>
