<svg fill="none" viewBox="0 0 485 263" height="263" width="485" xmlns="http://www.w3.org/2000/svg">
  <path stroke-width="6" stroke="black" fill="white" d="M242.5 3C321.415 3 387.87 39.2719 412.188 88.9824L413.01 90.6641H473.82C477.54 90.6641 480.023 92.1648 481.2 94.3135C482.396 96.4962 482.343 99.4333 480.395 102.531L480.394 102.532L445.038 158.835C443.507 161.263 440.993 163.515 438.01 165.162C435.027 166.809 431.782 167.736 428.913 167.736H414.716L413.927 169.526C391.17 221.141 323.4 259.25 242.5 259.25C161.6 259.25 93.8298 221.141 71.0732 169.526L70.2842 167.736H11.1797C7.46049 167.736 4.97709 166.236 3.7998 164.087C2.60408 161.904 2.6575 158.967 4.60547 155.869L4.60645 155.866L39.9355 99.5586C41.4668 97.1329 43.9806 94.8836 46.9609 93.2383C49.9437 91.5916 53.1883 90.6641 56.0576 90.6641H71.9902L72.8125 88.9824C97.1304 39.2719 163.585 3 242.5 3Z"></path>
  <path stroke-width="6" stroke="white" fill="#B22714" d="M242.631 3C292.513 3 337.548 17.5194 370.037 40.8428C402.531 64.1698 422.285 96.1294 422.285 131.125C422.285 166.121 402.531 198.08 370.037 221.407C337.548 244.731 292.513 259.25 242.631 259.25C192.749 259.25 147.714 244.731 115.225 221.407C82.7306 198.08 62.9766 166.121 62.9766 131.125C62.9766 96.1294 82.7306 64.1698 115.225 40.8428C147.714 17.5194 192.749 3 242.631 3Z"></path>
  <path fill="#F4BB3E" d="M267.692 33.3311C313.514 33.3311 363.5 62.2675 380.167 89.507C396.275 115.206 396.262 147.837 380.144 173.529C365.5 197.742 313.489 228.903 267.668 228.903C239.813 228.903 218.25 224.606 200.5 219.923C185.903 216.075 173.5 212.938 158 211.94L165.5 187.494C167.578 187.9 186.967 191.672 193.633 192.939C210.667 196.141 224.738 197.742 242.584 197.742C287.904 197.742 316.913 186.582 331.08 173.104C352.628 149.239 352.644 112.978 331.104 89.1065C316.937 75.6288 287.928 64.469 242.608 64.469C224.762 64.469 210.715 66.0697 193.657 69.2719C187.015 70.5148 167.603 74.3344 165.5 74.7404L158 50.2939C173 49.795 187.379 45.6838 202 41.8125C219.75 37.1287 239.813 33.3311 267.692 33.3311ZM260.474 216.767C258.081 216.846 256.505 217.467 255.523 218.073C255.023 218.377 254.681 218.685 254.455 218.913C254.343 219.027 254.262 219.121 254.216 219.195C254.17 219.268 254.138 219.306 254.138 219.306C253.586 220.033 253.364 220.715 253.544 221.189C253.724 221.662 254.345 221.959 255.187 221.976C255.197 221.974 258.154 221.586 260.645 221.482C263.124 221.395 266.115 221.563 266.115 221.563C266.967 221.491 267.55 221.144 267.702 220.66C267.854 220.176 267.587 219.501 266.969 218.821L266.988 218.836C266.988 218.836 266.95 218.805 266.891 218.722C266.833 218.658 266.737 218.561 266.624 218.466C266.379 218.26 266.022 217.975 265.509 217.704C264.482 217.162 262.864 216.67 260.474 216.767ZM287.892 214.28C287.357 214.28 286.786 214.315 286.178 214.406C284.943 214.586 283.928 214.839 283.099 215.165C282.269 215.49 281.624 215.852 281.145 216.213C280.647 216.575 280.315 216.9 280.094 217.153C279.983 217.28 279.909 217.388 279.854 217.46C279.799 217.533 279.78 217.587 279.78 217.587C279.246 218.382 279.062 219.105 279.301 219.592C279.54 220.08 280.205 220.316 281.127 220.279C281.15 220.275 281.935 220.132 283.025 219.918C284.131 219.701 285.569 219.467 286.878 219.268C288.187 219.105 289.643 218.96 290.768 218.888C291.339 218.852 291.82 218.816 292.151 218.78C292.482 218.761 292.686 218.744 292.686 218.744C293.57 218.545 294.16 218.129 294.253 217.606L294.234 217.587C294.327 217.063 293.957 216.412 293.22 215.779C293.216 215.776 293.18 215.741 293.109 215.689C293.036 215.635 292.943 215.544 292.796 215.454C292.52 215.274 292.096 215.02 291.524 214.822C290.953 214.623 290.233 214.424 289.349 214.333C288.906 214.297 288.426 214.262 287.892 214.28ZM316.468 205.708C315.007 205.505 312.849 205.595 309.995 206.652C309.276 206.922 308.647 207.192 308.063 207.507C307.478 207.799 306.984 208.091 306.534 208.384C305.635 208.991 304.984 209.62 304.489 210.182C303.995 210.744 303.68 211.238 303.5 211.598C303.41 211.778 303.343 211.935 303.298 212.025C303.253 212.137 303.231 212.182 303.231 212.205C302.804 213.307 302.781 214.252 303.186 214.769C303.59 215.285 304.444 215.42 305.545 215.128C305.545 215.128 306.445 214.745 307.703 214.183C308.332 213.914 309.074 213.599 309.815 213.307C310.579 212.992 311.343 212.655 312.107 212.386C313.636 211.846 315.322 211.261 316.648 210.879C317.951 210.452 318.896 210.159 318.896 210.159C319.907 209.687 320.468 209.013 320.446 208.361L320.469 208.316C320.424 207.642 319.795 206.967 318.761 206.428C318.761 206.428 318.693 206.405 318.603 206.338C318.513 206.293 318.356 206.225 318.154 206.136C317.772 205.978 317.209 205.798 316.468 205.708ZM342.902 191.756C342.472 191.708 341.851 191.66 341.063 191.756C339.486 191.923 337.312 192.545 334.637 194.337C331.961 196.129 330.552 197.922 329.812 199.308C329.453 200.001 329.238 200.598 329.118 201.029L329.142 201.004C329.094 201.219 329.047 201.386 329.047 201.506C329.047 201.625 329.046 201.697 329.023 201.697C328.855 202.94 329.022 203.896 329.596 204.349C330.145 204.78 331.077 204.708 332.128 204.158C332.128 204.158 332.964 203.537 334.135 202.653C335.33 201.793 336.834 200.645 338.268 199.69C339.701 198.734 341.327 197.755 342.568 196.966C343.834 196.201 344.719 195.675 344.719 195.675C345.626 194.91 346.056 194.074 345.841 193.405C345.626 192.736 344.79 192.185 343.596 191.899C343.596 191.899 343.523 191.899 343.404 191.851C343.285 191.827 343.117 191.78 342.902 191.756ZM332.009 57.9374C330.958 57.3883 330.026 57.3163 329.477 57.7464C328.903 58.2001 328.735 59.1562 328.902 60.3988C328.927 60.3988 328.927 60.471 328.927 60.5898C328.927 60.7094 328.975 60.8775 329.023 61.0926L328.998 61.0682C329.118 61.4984 329.333 62.0961 329.691 62.7891C330.432 64.1751 331.842 65.9676 334.518 67.7596C337.193 69.5515 339.367 70.1735 340.943 70.3409C341.732 70.4363 342.353 70.3886 342.783 70.3409C342.998 70.3167 343.166 70.2686 343.285 70.2444C343.399 70.1988 343.47 70.1968 343.476 70.1967C344.67 69.9104 345.506 69.3608 345.722 68.6922C345.937 68.0227 345.507 67.1857 344.599 66.4208C344.579 66.4089 343.7 65.8868 342.448 65.1306C341.206 64.3422 339.582 63.3619 338.148 62.4061C336.715 61.4503 335.21 60.3032 334.016 59.4429C332.845 58.5589 332.009 57.9374 332.009 57.9374ZM305.426 46.9682C304.325 46.6754 303.47 46.8111 303.065 47.3278C302.661 47.8451 302.684 48.7892 303.11 49.8905C303.11 49.9133 303.134 49.9582 303.179 50.0708C303.224 50.1606 303.291 50.3181 303.381 50.4976C303.56 50.8574 303.875 51.3523 304.369 51.9144C304.863 52.4765 305.515 53.1053 306.414 53.7122C306.864 54.0044 307.359 54.2965 307.943 54.5892C308.528 54.9035 309.157 55.1738 309.876 55.4438C312.73 56.5004 314.888 56.5904 316.349 56.388C317.09 56.2982 317.652 56.1177 318.034 55.9602C318.236 55.8705 318.394 55.8034 318.483 55.7585C318.57 55.6943 318.635 55.6707 318.641 55.6689C319.675 55.1295 320.304 54.4545 320.349 53.7804L320.327 53.7356C320.349 53.0837 319.788 52.4086 318.776 51.9368C318.776 51.9368 317.832 51.6445 316.528 51.2177C315.203 50.8357 313.517 50.2506 311.988 49.7112C311.224 49.4413 310.46 49.1043 309.696 48.7894C308.954 48.4973 308.212 48.1818 307.583 47.9124C306.325 47.3503 305.426 46.9682 305.426 46.9682ZM281.007 41.8164C280.085 41.7799 279.421 42.0154 279.182 42.5034C278.942 42.9909 279.127 43.7141 279.661 44.5097C279.663 44.5143 279.682 44.567 279.734 44.6364C279.79 44.7086 279.864 44.8169 279.975 44.9433C280.196 45.1965 280.528 45.5213 281.025 45.8827C281.505 46.2441 282.15 46.6058 282.98 46.9312C283.809 47.2565 284.823 47.5093 286.059 47.6903C286.667 47.7807 287.238 47.8169 287.773 47.8169C288.307 47.8347 288.787 47.7985 289.23 47.7624C290.114 47.6719 290.833 47.4729 291.404 47.2742C291.976 47.0754 292.4 46.8223 292.677 46.6418C292.824 46.5514 292.916 46.4608 292.989 46.4069C293.063 46.3525 293.101 46.3163 293.101 46.3163C293.838 45.684 294.206 45.0338 294.114 44.5097L294.133 44.4912C294.041 43.9671 293.451 43.5509 292.566 43.3521C292.566 43.3521 292.363 43.3343 292.031 43.316C291.699 43.28 291.22 43.244 290.648 43.2079C289.524 43.1357 288.068 42.9905 286.759 42.8279C285.45 42.6291 284.011 42.3945 282.905 42.1779C281.799 41.9609 281.007 41.8164 281.007 41.8164ZM255.067 40.1209C254.226 40.1375 253.605 40.4345 253.425 40.9082C253.245 41.3815 253.467 42.0637 254.019 42.7908C254.022 42.7948 254.053 42.8325 254.097 42.9019C254.143 42.9755 254.224 43.0697 254.336 43.1835C254.562 43.4121 254.904 43.72 255.403 44.0235C256.386 44.6292 257.961 45.2512 260.354 45.3302C262.744 45.4267 264.362 44.9337 265.389 44.3918C265.902 44.1209 266.259 43.8369 266.504 43.6308C266.617 43.5357 266.713 43.4383 266.772 43.3735C266.83 43.2929 266.868 43.2595 266.868 43.2595L266.85 43.2761C267.468 42.5952 267.735 41.9194 267.583 41.4354C267.431 40.9514 266.847 40.6057 265.995 40.534C265.967 40.5356 262.992 40.7012 260.524 40.6149C258.046 40.5108 255.107 40.1261 255.067 40.1209Z"></path>
  <path fill="#F4BB3E" d="M171.5 185.495L193.561 188.987L193.5 73.2403C193.5 73.2403 174.988 75.9919 171.5 76.7327V185.495Z"></path>
  <path fill="#F4BB3E" d="M125.5 212.44L133.5 185C139 184.002 148.5 184.002 158.5 185.998L150.438 211.254C145.83 211.254 142.224 211.052 138.75 211.254C135.5 211.442 129 211.442 125.5 212.44Z"></path>
  <path fill="#F4BB3E" d="M125.5 49.7933L133.5 77.2333C139 78.2311 148.5 78.2311 158.5 76.2355L150.438 50.9795C145.83 50.9795 142.224 51.1808 138.749 50.9795C135.5 50.7911 129 50.7911 125.5 49.7933Z"></path>
  <path fill="#204387" d="M473.791 87.6641H56.058C49.1136 87.6641 41.0986 92.0911 37.3949 97.9649L2.06543 154.272C-0.336167 158.092 -0.654451 162.2 1.16845 165.528C2.99135 168.855 6.63715 170.736 11.1799 170.736H428.913C435.858 170.736 443.872 166.309 447.576 160.435L482.935 104.128C485.336 100.309 485.655 96.1999 483.832 92.8723C482.009 89.5448 478.363 87.6641 473.82 87.6641H473.791Z"></path>
  <path fill="white" d="M473.791 93.452C478.739 93.452 480.62 96.8663 477.987 101.062L442.628 157.369C439.995 161.565 433.803 164.979 428.884 164.979H11.151C6.20312 164.979 4.32235 161.565 6.95543 157.369L42.3139 101.062C44.947 96.8663 51.139 93.452 56.058 93.452H473.791ZM473.791 87.665H56.058C49.1136 87.665 41.0986 92.0921 37.3949 97.9659L2.06543 154.273C-0.336167 158.093 -0.654451 162.201 1.16845 165.529C2.99135 168.856 6.63714 170.737 11.1799 170.737H428.913C435.857 170.737 443.872 166.31 447.576 160.436L482.935 104.129C485.336 100.31 485.654 96.2008 483.832 92.8733C482.009 89.5458 478.363 87.665 473.82 87.665H473.791Z"></path>
  <path fill="white" d="M169.655 113.076C175.557 113.076 181.084 110.934 182.01 108.272C182.936 105.61 178.885 103.469 172.982 103.469C167.08 103.469 161.524 105.61 160.627 108.272C159.701 110.934 163.752 113.076 169.655 113.076Z" clip-rule="evenodd" fill-rule="evenodd"></path>
  <path fill="white" d="M213.607 147.216L218.67 137.986H210.163L208.919 139.867C206.373 142.211 204.752 143.397 201.222 143.397C198.531 143.397 195.841 143.542 194.77 140.069C194.22 138.275 194.307 135.845 195.435 133.559C197.895 128.582 202.235 125.11 207.241 123.895C210.366 123.143 212.796 125.284 213.549 127.627L213.809 128.438H222.316L229.26 114.462H220.406C220.406 114.462 220.406 116.69 219.654 116.082C217.571 114.375 214.59 113.478 210.973 113.478C199.342 113.478 185.192 116.603 179.377 132.199C177.38 137.581 178.306 142.182 181.026 145.712C184.556 150.283 188.52 151.933 193.699 152.367C208.34 153.553 213.607 147.274 213.607 147.274V147.216Z" clip-rule="evenodd" fill-rule="evenodd"></path>
  <path fill="white" d="M263.523 125.028L256.782 128.211L271.018 104.6H249.432L243.414 114.582L249.779 114.496L233.229 141.868H226.979L220.96 151.851H243.674L250.676 138.164L259.849 151.851H276.139L282.158 141.868L273.072 141.781L266.619 133.303L283.17 125.433L289.478 125.404L295.352 115.769L283.112 115.711L263.523 125.028Z" clip-rule="evenodd" fill-rule="evenodd"></path>
  <path fill="white" d="M311.73 141.746L327.587 115.676H306.088L300.07 125.659L306.349 125.543L296.598 141.746H290.29L284.271 151.758H312.078L318.096 141.746H311.73Z" clip-rule="evenodd" fill-rule="evenodd"></path>
  <path fill="white" d="M318.932 113.076C324.834 113.076 330.39 110.934 331.287 108.272C332.213 105.61 328.162 103.469 322.259 103.469C316.356 103.469 310.83 105.61 309.904 108.272C308.978 110.934 313.029 113.076 318.932 113.076Z" clip-rule="evenodd" fill-rule="evenodd"></path>
  <path fill="white" d="M346.472 129.188H360.389C360.389 129.188 364.759 121.954 356.686 121.954C350.291 121.954 346.472 129.188 346.472 129.188ZM372.253 118.627C375.985 123.835 374.539 127.973 373.7 131.3C373.671 131.416 372.166 135.177 372.166 135.177H344.417C344.417 135.177 340.453 143.569 348.555 143.974C352.172 144.147 354.689 142.585 357.178 140.328L357.727 139.836H368.318C368.318 139.836 364.788 152.712 346.703 152.625C340.569 152.596 335.361 150.658 332.062 147.128C328.735 143.54 327.722 138.736 329.198 133.615C332.236 123.025 344.273 113.881 356.686 113.881C362.589 113.881 369.388 114.663 372.282 118.656L372.253 118.627Z" clip-rule="evenodd" fill-rule="evenodd"></path>
  <path fill="white" d="M393.005 140.795L393.758 139.204H381.026L373.474 151.733H386.148L386.871 150.518C386.871 150.518 390.343 152.601 396.275 152.601C405.419 152.601 417.455 148.955 422.259 140.969C427.785 131.768 416.501 129.8 409.701 128.614C405.447 127.862 404.608 127.341 405.447 125.952C406.344 124.476 409.064 123.666 411.177 123.666C412.276 123.666 413.868 123.55 415.401 124.303C417.658 125.402 416.385 127.572 416.385 127.572H427.409L434.585 115.651H422.201L421.767 116.49C421.767 116.49 417.195 114.957 413.462 114.957C404.464 114.957 393.063 118.805 388.636 126.154C383.37 134.893 393.845 137.005 400.789 138.365L401.512 138.51C405.563 139.32 406.2 139.783 405.332 141.229C404.261 143.023 401.107 144.123 398.792 144.123C397.722 144.123 396.391 144.586 394.423 143.689C392.6 142.85 392.629 141.519 392.977 140.738L393.005 140.795Z" clip-rule="evenodd" fill-rule="evenodd"></path>
  <path fill="white" d="M85.9459 141.192H93.1796C99.2848 141.192 102.149 140.844 107.589 137.951C111.987 135.607 114.649 131.614 116.848 127.997C119.337 123.86 118.411 120.706 116.964 118.42C115.922 116.77 113.839 115.497 109.962 114.948H101.773L85.9748 141.22L85.9459 141.192ZM65.8361 141.597L82.1843 114.427H72.1728L78.1913 104.473H113.463C124.024 104.473 130.129 106.383 133.833 110.839C137.508 115.266 139.649 124.322 135.482 131.238C131.75 137.401 128.133 143.767 119.886 148.078C110.772 152.91 96.4782 151.724 85.5697 151.724H49.7483L55.7668 141.741L65.8361 141.597Z" clip-rule="evenodd" fill-rule="evenodd"></path>
  <path fill="white" d="M162.106 141.746L177.962 115.676H156.464L150.445 125.659L156.724 125.543L146.973 141.746H140.665L134.647 151.758H162.453L168.472 141.746H162.106Z" clip-rule="evenodd" fill-rule="evenodd"></path>
</svg>